<!-- This is an SVG icon used for the "Free Delivery" feature. -->
<svg xmlns="http://www.w3.org/2000/svg" width="24" height="24" viewBox="0 0 24 24">
    <path d="M10 20c-1.1 0-2-.9-2-2s.9-2 2-2 2 .9 2 2-.9 2-2 2zm0-3c-.55 0-1 .45-1 1s.45 1 1 1 1-.45 1-1-.45-1-1-1zm8-1c-1.1 0-2-.9-2-2s.9-2 2-2 2 .9 2 2-.9 2-2 2zm0-3c-.55 0-1 .45-1 1s.45 1 1 1 1-.45 1-1-.45-1-1-1zm-8-8H4v2h4v-2zm0 4H4v2h4v-2zm0 4H4v2h4v-2zm8-8h-4v2h4V6zm0 4h-4v2h4v-2zm0 4h-4v2h4v-2zm4-8h-2V4h-4v2h-2V4H4v16h16V6zm0 14H4v-2h16v2z"/>
</svg>